<svg width="19" height="19" viewBox="0 0 19 19" fill="none" xmlns="http://www.w3.org/2000/svg">
<path d="M11.1684 1.24687C10.678 -0.415625 8.322 -0.415625 7.83156 1.24687L7.71281 1.65062C7.63953 1.89952 7.51148 2.12885 7.33803 2.32181C7.16458 2.51478 6.95014 2.66647 6.71044 2.76576C6.47073 2.86506 6.21184 2.90945 5.95275 2.89567C5.69366 2.88189 5.44094 2.81029 5.21312 2.68613L4.845 2.48425C3.32144 1.65538 1.65537 3.32144 2.48544 4.84381L2.68613 5.21312C3.21575 6.18687 2.71344 7.39931 1.65062 7.71281L1.24687 7.83156C-0.415625 8.322 -0.415625 10.678 1.24687 11.1684L1.65062 11.2872C1.89952 11.3605 2.12885 11.4885 2.32181 11.662C2.51478 11.8354 2.66647 12.0499 2.76576 12.2896C2.86506 12.5293 2.90945 12.7882 2.89567 13.0472C2.88189 13.3063 2.81029 13.5591 2.68613 13.7869L2.48425 14.155C1.65538 15.6786 3.32144 17.3446 4.84381 16.5146L5.21312 16.3139C5.44094 16.1897 5.69366 16.1181 5.95275 16.1043C6.21184 16.0906 6.47073 16.1349 6.71044 16.2342C6.95014 16.3335 7.16458 16.4852 7.33803 16.6782C7.51148 16.8711 7.63953 17.1005 7.71281 17.3494L7.83156 17.7531C8.322 19.4156 10.678 19.4156 11.1684 17.7531L11.2872 17.3494C11.3605 17.1005 11.4885 16.8711 11.662 16.6782C11.8354 16.4852 12.0499 16.3335 12.2896 16.2342C12.5293 16.1349 12.7882 16.0906 13.0472 16.1043C13.3063 16.1181 13.5591 16.1897 13.7869 16.3139L14.155 16.5158C15.6786 17.3446 17.3446 15.6786 16.5146 14.1562L16.3139 13.7869C16.1897 13.5591 16.1181 13.3063 16.1043 13.0472C16.0906 12.7882 16.1349 12.5293 16.2342 12.2896C16.3335 12.0499 16.4852 11.8354 16.6782 11.662C16.8711 11.4885 17.1005 11.3605 17.3494 11.2872L17.7531 11.1684C19.4156 10.678 19.4156 8.322 17.7531 7.83156L17.3494 7.71281C17.1005 7.63953 16.8711 7.51148 16.6782 7.33803C16.4852 7.16458 16.3335 6.95014 16.2342 6.71044C16.1349 6.47073 16.0906 6.21184 16.1043 5.95275C16.1181 5.69366 16.1897 5.44094 16.3139 5.21312L16.5158 4.845C17.3446 3.32144 15.6786 1.65537 14.1562 2.48544L13.7869 2.68613C13.5591 2.81029 13.3063 2.88189 13.0472 2.89567C12.7882 2.90945 12.5293 2.86506 12.2896 2.76576C12.0499 2.66647 11.8354 2.51478 11.662 2.32181C11.4885 2.12885 11.3605 1.89952 11.2872 1.65062L11.1684 1.24687ZM9.5 12.9794C8.57721 12.9794 7.69222 12.6128 7.03971 11.9603C6.3872 11.3078 6.02063 10.4228 6.02063 9.5C6.02063 8.57721 6.3872 7.69222 7.03971 7.03971C7.69222 6.3872 8.57721 6.02063 9.5 6.02063C10.4225 6.02063 11.3072 6.38708 11.9594 7.03936C12.6117 7.69165 12.9782 8.57634 12.9782 9.49881C12.9782 10.4213 12.6117 11.306 11.9594 11.9583C11.3072 12.6105 10.4225 12.977 9.5 12.977V12.9794Z" fill="black"/>
</svg>
