<svg width="177" height="49" viewBox="0 0 177 49" fill="none" xmlns="http://www.w3.org/2000/svg">
<path d="M0 9C0 4.02944 4.02944 0 9 0H168C172.971 0 177 4.02944 177 9V40C177 44.9706 172.971 49 168 49H9C4.02944 49 0 44.9706 0 40V9Z" fill="white"/>
<path d="M72.07 21.154C72.07 22.43 71.63 23.4933 70.75 24.344C69.8847 25.18 68.5574 25.598 66.768 25.598H63.82V32H61.818V16.666H66.768C68.4987 16.666 69.8114 17.084 70.706 17.92C71.6154 18.756 72.07 19.834 72.07 21.154ZM66.768 23.948C67.8827 23.948 68.704 23.706 69.232 23.222C69.76 22.738 70.024 22.0487 70.024 21.154C70.024 19.262 68.9387 18.316 66.768 18.316H63.82V23.948H66.768ZM79.8163 32.198C78.6869 32.198 77.6603 31.9413 76.7363 31.428C75.8269 30.9147 75.1083 30.1887 74.5803 29.25C74.0669 28.2967 73.8103 27.1967 73.8103 25.95C73.8103 24.718 74.0743 23.6327 74.6023 22.694C75.1449 21.7407 75.8783 21.0147 76.8023 20.516C77.7263 20.0027 78.7603 19.746 79.9043 19.746C81.0483 19.746 82.0823 20.0027 83.0063 20.516C83.9303 21.0147 84.6563 21.7333 85.1843 22.672C85.7269 23.6107 85.9983 24.7033 85.9983 25.95C85.9983 27.1967 85.7196 28.2967 85.1623 29.25C84.6196 30.1887 83.8789 30.9147 82.9403 31.428C82.0016 31.9413 80.9603 32.198 79.8163 32.198ZM79.8163 30.438C80.5349 30.438 81.2096 30.2693 81.8403 29.932C82.4709 29.5947 82.9769 29.0887 83.3583 28.414C83.7543 27.7393 83.9523 26.918 83.9523 25.95C83.9523 24.982 83.7616 24.1607 83.3803 23.486C82.9989 22.8113 82.5003 22.3127 81.8843 21.99C81.2683 21.6527 80.6009 21.484 79.8823 21.484C79.1489 21.484 78.4743 21.6527 77.8583 21.99C77.2569 22.3127 76.7729 22.8113 76.4063 23.486C76.0396 24.1607 75.8563 24.982 75.8563 25.95C75.8563 26.9327 76.0323 27.7613 76.3843 28.436C76.7509 29.1107 77.2349 29.6167 77.8363 29.954C78.4376 30.2767 79.0976 30.438 79.8163 30.438ZM94.5045 19.724C95.9712 19.724 97.1592 20.1713 98.0685 21.066C98.9779 21.946 99.4325 23.222 99.4325 24.894V32H97.4525V25.18C97.4525 23.9773 97.1519 23.0607 96.5505 22.43C95.9492 21.7847 95.1279 21.462 94.0865 21.462C93.0305 21.462 92.1872 21.792 91.5565 22.452C90.9405 23.112 90.6325 24.0727 90.6325 25.334V32H88.6305V19.944H90.6325V21.66C91.0285 21.044 91.5639 20.5673 92.2385 20.23C92.9279 19.8927 93.6832 19.724 94.5045 19.724ZM107.675 19.746C108.716 19.746 109.625 19.9733 110.403 20.428C111.195 20.8827 111.781 21.4547 112.163 22.144V19.944H114.187V32.264C114.187 33.364 113.952 34.3393 113.483 35.19C113.013 36.0553 112.339 36.73 111.459 37.214C110.593 37.698 109.581 37.94 108.423 37.94C106.839 37.94 105.519 37.566 104.463 36.818C103.407 36.07 102.783 35.0507 102.593 33.76H104.573C104.793 34.4933 105.247 35.08 105.937 35.52C106.626 35.9747 107.455 36.202 108.423 36.202C109.523 36.202 110.417 35.8573 111.107 35.168C111.811 34.4787 112.163 33.5107 112.163 32.264V29.734C111.767 30.438 111.18 31.0247 110.403 31.494C109.625 31.9633 108.716 32.198 107.675 32.198C106.604 32.198 105.629 31.934 104.749 31.406C103.883 30.878 103.201 30.1373 102.703 29.184C102.204 28.2307 101.955 27.1453 101.955 25.928C101.955 24.696 102.204 23.618 102.703 22.694C103.201 21.7553 103.883 21.0293 104.749 20.516C105.629 20.0027 106.604 19.746 107.675 19.746ZM112.163 25.95C112.163 25.0407 111.979 24.2487 111.613 23.574C111.246 22.8993 110.747 22.386 110.117 22.034C109.501 21.6673 108.819 21.484 108.071 21.484C107.323 21.484 106.641 21.66 106.025 22.012C105.409 22.364 104.917 22.8773 104.551 23.552C104.184 24.2267 104.001 25.0187 104.001 25.928C104.001 26.852 104.184 27.6587 104.551 28.348C104.917 29.0227 105.409 29.5433 106.025 29.91C106.641 30.262 107.323 30.438 108.071 30.438C108.819 30.438 109.501 30.262 110.117 29.91C110.747 29.5433 111.246 29.0227 111.613 28.348C111.979 27.6587 112.163 26.8593 112.163 25.95Z" fill="#0F0326"/>
</svg>
